<?xml version="1.0" encoding="utf-8" standalone="no"?>
<!DOCTYPE svg PUBLIC "-//W3C//DTD SVG 1.1//EN"
  "http://www.w3.org/Graphics/SVG/1.1/DTD/svg11.dtd">
<svg xmlns:xlink="http://www.w3.org/1999/xlink" width="1022.4pt" height="345.6pt" viewBox="0 0 1022.4 345.6" xmlns="http://www.w3.org/2000/svg" version="1.1">
 <metadata>
  <rdf:RDF xmlns:dc="http://purl.org/dc/elements/1.1/" xmlns:cc="http://creativecommons.org/ns#" xmlns:rdf="http://www.w3.org/1999/02/22-rdf-syntax-ns#">
   <cc:Work>
    <dc:type rdf:resource="http://purl.org/dc/dcmitype/StillImage"/>
    <dc:format>image/svg+xml</dc:format>
    <dc:creator>
     <cc:Agent>
      <dc:title>Matplotlib v3.10.3, https://matplotlib.org/</dc:title>
     </cc:Agent>
    </dc:creator>
   </cc:Work>
  </rdf:RDF>
 </metadata>
 <defs>
  <style type="text/css">*{stroke-linejoin: round; stroke-linecap: butt}</style>
 </defs>
 <g id="figure_1">
  <g id="patch_1">
   <path d="M 0 345.6 
L 1022.4 345.6 
L 1022.4 0 
L 0 0 
z
" style="fill: #ffffff"/>
  </g>
  <g id="axes_1">
   <g id="line2d_1">
    <path d="M 20.448 46.656 
L 1001.952 46.656 
" clip-path="url(#pa0c6008c5e)" style="fill: none; stroke: #d8e0e5; stroke-linecap: square"/>
   </g>
   <g id="patch_2">
    <path d="M 26.5824 114.3936 
L 305.6976 114.3936 
Q 317.9664 114.3936 317.9664 110.2464 
L 317.9664 88.4736 
Q 317.9664 84.3264 305.6976 84.3264 
L 26.5824 84.3264 
Q 14.3136 84.3264 14.3136 88.4736 
L 14.3136 110.2464 
Q 14.3136 114.3936 26.5824 114.3936 
z
" clip-path="url(#pa0c6008c5e)" style="fill: #fff3d6; stroke: #d89b2b; stroke-width: 1.2; stroke-linejoin: miter"/>
   </g>
   <g id="patch_3">
    <path d="M 26.5824 190.4256 
L 305.6976 190.4256 
Q 317.9664 190.4256 317.9664 186.2784 
L 317.9664 129.9456 
Q 317.9664 125.7984 305.6976 125.7984 
L 26.5824 125.7984 
Q 14.3136 125.7984 14.3136 129.9456 
L 14.3136 186.2784 
Q 14.3136 190.4256 26.5824 190.4256 
z
" clip-path="url(#pa0c6008c5e)" style="fill: #e5f4f1; stroke: #238b7e; stroke-width: 1.4; stroke-linejoin: miter"/>
   </g>
   <g id="patch_4">
    <path d="M 50.0976 165.5424 
L 153.36 165.5424 
Q 171.7632 165.5424 171.7632 159.3216 
L 171.7632 155.1744 
Q 171.7632 148.9536 153.36 148.9536 
L 50.0976 148.9536 
Q 31.6944 148.9536 31.6944 155.1744 
L 31.6944 159.3216 
Q 31.6944 165.5424 50.0976 165.5424 
z
" clip-path="url(#pa0c6008c5e)" style="fill: #ffffff; stroke: #238b7e; stroke-width: 1.2; stroke-linejoin: miter"/>
   </g>
   <g id="patch_5">
    <path d="M 147.2256 165.5424 
L 293.4288 165.5424 
Q 311.832 165.5424 311.832 159.3216 
L 311.832 155.1744 
Q 311.832 148.9536 293.4288 148.9536 
L 147.2256 148.9536 
Q 128.8224 148.9536 128.8224 155.1744 
L 128.8224 159.3216 
Q 128.8224 165.5424 147.2256 165.5424 
z
" clip-path="url(#pa0c6008c5e)" style="fill: #ffffff; stroke: #238b7e; stroke-width: 1.2; stroke-linejoin: miter"/>
   </g>
   <g id="patch_6">
    <path d="M 26.5824 266.4576 
L 305.6976 266.4576 
Q 317.9664 266.4576 317.9664 262.3104 
L 317.9664 205.9776 
Q 317.9664 201.8304 305.6976 201.8304 
L 26.5824 201.8304 
Q 14.3136 201.8304 14.3136 205.9776 
L 14.3136 262.3104 
Q 14.3136 266.4576 26.5824 266.4576 
z
" clip-path="url(#pa0c6008c5e)" style="fill: #e8f2f8; stroke: #2f6b9a; stroke-width: 1.4; stroke-linejoin: miter"/>
   </g>
   <g id="patch_7">
    <path d="M 50.0976 241.5744 
L 153.36 241.5744 
Q 171.7632 241.5744 171.7632 235.3536 
L 171.7632 231.2064 
Q 171.7632 224.9856 153.36 224.9856 
L 50.0976 224.9856 
Q 31.6944 224.9856 31.6944 231.2064 
L 31.6944 235.3536 
Q 31.6944 241.5744 50.0976 241.5744 
z
" clip-path="url(#pa0c6008c5e)" style="fill: #ffffff; stroke: #2f6b9a; stroke-width: 1.2; stroke-linejoin: miter"/>
   </g>
   <g id="patch_8">
    <path d="M 147.2256 241.5744 
L 293.4288 241.5744 
Q 311.832 241.5744 311.832 235.3536 
L 311.832 231.2064 
Q 311.832 224.9856 293.4288 224.9856 
L 147.2256 224.9856 
Q 128.8224 224.9856 128.8224 231.2064 
L 128.8224 235.3536 
Q 128.8224 241.5744 147.2256 241.5744 
z
" clip-path="url(#pa0c6008c5e)" style="fill: #ffffff; stroke: #2f6b9a; stroke-width: 1.2; stroke-linejoin: miter"/>
   </g>
   <g id="patch_9">
    <path d="M 363.9744 117.8496 
L 683.9856 117.8496 
Q 696.2544 117.8496 696.2544 113.7024 
L 696.2544 88.4736 
Q 696.2544 84.3264 683.9856 84.3264 
L 363.9744 84.3264 
Q 351.7056 84.3264 351.7056 88.4736 
L 351.7056 113.7024 
Q 351.7056 117.8496 363.9744 117.8496 
z
" clip-path="url(#pa0c6008c5e)" style="fill: #f5f7f8; stroke: #aab8c1; stroke-width: 1.2; stroke-linejoin: miter"/>
   </g>
   <g id="patch_10">
    <path d="M 363.9744 207.7056 
L 683.9856 207.7056 
Q 696.2544 207.7056 696.2544 203.5584 
L 696.2544 136.8576 
Q 696.2544 132.7104 683.9856 132.7104 
L 363.9744 132.7104 
Q 351.7056 132.7104 351.7056 136.8576 
L 351.7056 203.5584 
Q 351.7056 207.7056 363.9744 207.7056 
z
" clip-path="url(#pa0c6008c5e)" style="fill: #fbeaec; stroke: #b44b52; stroke-width: 1.2; stroke-linejoin: miter"/>
   </g>
   <g id="patch_11">
    <path d="M 363.9744 311.3856 
L 683.9856 311.3856 
Q 696.2544 311.3856 696.2544 307.2384 
L 696.2544 230.1696 
Q 696.2544 226.0224 683.9856 226.0224 
L 363.9744 226.0224 
Q 351.7056 226.0224 351.7056 230.1696 
L 351.7056 307.2384 
Q 351.7056 311.3856 363.9744 311.3856 
z
" clip-path="url(#pa0c6008c5e)" style="fill: #e5f4f1; stroke: #238b7e; stroke-width: 1.7; stroke-linejoin: miter"/>
   </g>
   <g id="patch_12">
    <path d="M 742.2624 200.7936 
L 995.8176 200.7936 
Q 1008.0864 200.7936 1008.0864 196.6464 
L 1008.0864 88.4736 
Q 1008.0864 84.3264 995.8176 84.3264 
L 742.2624 84.3264 
Q 729.9936 84.3264 729.9936 88.4736 
L 729.9936 196.6464 
Q 729.9936 200.7936 742.2624 200.7936 
z
" clip-path="url(#pa0c6008c5e)" style="fill: #ffffff; stroke: #183b56; stroke-width: 1.5; stroke-linejoin: miter"/>
   </g>
   <g id="patch_13">
    <path d="M 760.6656 187.6608 
L 977.4144 187.6608 
Q 987.6384 187.6608 987.6384 184.2048 
L 987.6384 166.2336 
Q 987.6384 162.7776 977.4144 162.7776 
L 760.6656 162.7776 
Q 750.4416 162.7776 750.4416 166.2336 
L 750.4416 184.2048 
Q 750.4416 187.6608 760.6656 187.6608 
z
" clip-path="url(#pa0c6008c5e)" style="fill: #e5f4f1; stroke: #238b7e; stroke-width: 1.2; stroke-linejoin: miter"/>
   </g>
   <g id="patch_14">
    <path d="M 742.2624 266.4576 
L 995.8176 266.4576 
Q 1008.0864 266.4576 1008.0864 262.3104 
L 1008.0864 218.0736 
Q 1008.0864 213.9264 995.8176 213.9264 
L 742.2624 213.9264 
Q 729.9936 213.9264 729.9936 218.0736 
L 729.9936 262.3104 
Q 729.9936 266.4576 742.2624 266.4576 
z
" clip-path="url(#pa0c6008c5e)" style="fill: #f5f7f8; stroke: #aab8c1; stroke-width: 1.2; stroke-linejoin: miter"/>
   </g>
   <g id="patch_15">
    <path d="M 742.2624 311.3856 
L 995.8176 311.3856 
Q 1008.0864 311.3856 1008.0864 307.2384 
L 1008.0864 283.7376 
Q 1008.0864 279.5904 995.8176 279.5904 
L 742.2624 279.5904 
Q 729.9936 279.5904 729.9936 283.7376 
L 729.9936 307.2384 
Q 729.9936 311.3856 742.2624 311.3856 
z
" clip-path="url(#pa0c6008c5e)" style="fill: #fbeaec; stroke-dasharray: 4.44,1.92; stroke-dashoffset: 0; stroke: #b44b52; stroke-width: 1.2; stroke-linejoin: miter"/>
   </g>
   <g id="patch_16">
    <path d="M 756.576 123.7248 
L 909.936 123.7248 
L 909.936 116.8128 
L 756.576 116.8128 
z
" clip-path="url(#pa0c6008c5e)" style="fill: #e1e7ea"/>
   </g>
   <g id="patch_17">
    <path d="M 756.576 151.3728 
L 909.936 151.3728 
L 909.936 144.4608 
L 756.576 144.4608 
z
" clip-path="url(#pa0c6008c5e)" style="fill: #e1e7ea"/>
   </g>
   <g id="patch_18">
    <path d="M 756.576 123.7248 
L 840.924 123.7248 
L 840.924 116.8128 
L 756.576 116.8128 
z
" clip-path="url(#pa0c6008c5e)" style="fill: #b44b52"/>
   </g>
   <g id="patch_19">
    <path d="M 756.576 151.3728 
L 909.936 151.3728 
L 909.936 144.4608 
L 756.576 144.4608 
z
" clip-path="url(#pa0c6008c5e)" style="fill: #238b7e"/>
   </g>
   <g id="patch_20">
    <path d="M 523.4688 208.3968 
Q 523.4688 216.5184 523.4688 222.739342 
" clip-path="url(#pa0c6008c5e)" style="fill: none; stroke: #238b7e; stroke-width: 1.7; stroke-linecap: round"/>
    <path d="M 525.8688 217.939342 
L 523.4688 222.739342 
L 521.0688 217.939342 
z
" clip-path="url(#pa0c6008c5e)" style="fill: #238b7e; stroke: #238b7e; stroke-width: 1.7; stroke-linecap: round"/>
   </g>
   <g id="text_1">
    <text style="font-weight: 700; font-size: 15px; font-family: 'DejaVu Sans'; text-anchor: start; fill: #183b56" x="20.448" y="21.360469" transform="rotate(-0 20.448 21.360469)">Same language match, different evidence validity</text>
   </g>
   <g id="text_2">
    <text style="font-size: 9.3px; font-family: 'DejaVu Sans'; text-anchor: start; fill: #61717d" x="20.448" y="36.435019" transform="rotate(-0 20.448 36.435019)">OpenProp separates typed comparison from persistence and observation-process bias.</text>
   </g>
   <g id="text_3">
    <text style="font-weight: 700; font-size: 12px; font-family: 'DejaVu Sans'; text-anchor: start; fill: #183b56" x="20.448" y="63.79125" transform="rotate(-0 20.448 63.79125)">(a)</text>
   </g>
   <g id="text_4">
    <text style="font-weight: 700; font-size: 11.2px; font-family: 'DejaVu Sans'; text-anchor: start; fill: #183b56" x="47.0304" y="63.52675" transform="rotate(-0 47.0304 63.52675)">Ambiguous historical evidence</text>
   </g>
   <g id="text_5">
    <text style="font-size: 7.8px; font-family: 'DejaVu Sans'; text-anchor: start; fill: #61717d" x="47.0304" y="76.456312" transform="rotate(-0 47.0304 76.456312)">Both candidates satisfy the typed query.</text>
   </g>
   <g id="text_6">
    <text style="font-weight: 700; font-size: 7.2px; font-family: 'DejaVu Sans'; text-anchor: start; fill: #815b12" x="36.8064" y="97.37235" transform="rotate(-0 36.8064 97.37235)">QUERY</text>
   </g>
   <g id="text_7">
    <text style="font-style: italic; font-size: 10.2px; font-family: 'DejaVu Sans'; text-anchor: start; fill: #24323d" x="36.8064" y="109.259363" transform="rotate(-0 36.8064 109.259363)">“the mug beside the kettle”</text>
   </g>
   <g id="text_8">
    <text style="font-weight: 700; font-size: 10.3px; font-family: 'DejaVu Sans'; text-anchor: start; fill: #238b7e" x="37.8288" y="143.766487" transform="rotate(-0 37.8288 143.766487)">mug A</text>
   </g>
   <g id="text_9">
    <text style="font-size: 7.3px; font-family: 'DejaVu Sans'; text-anchor: end; fill: #61717d" x="293.4288" y="143.019144" transform="rotate(-0 293.4288 143.019144)">candidate</text>
   </g>
   <g id="text_10">
    <text style="font-size: 7.6px; font-family: 'DejaVu Sans'; text-anchor: middle; fill: #24323d" x="101.7288" y="159.345125" transform="rotate(-0 101.7288 159.345125)">type = Mug</text>
   </g>
   <g id="text_11">
    <text style="font-size: 7.6px; font-family: 'DejaVu Sans'; text-anchor: middle; fill: #24323d" x="220.3272" y="159.345125" transform="rotate(-0 220.3272 159.345125)">beside(kettle)</text>
   </g>
   <g id="text_12">
    <text style="font-size: 8.2px; font-family: 'DejaVu Sans'; text-anchor: start; fill: #24323d" x="37.8288" y="176.099487" transform="rotate(-0 37.8288 176.099487)">observed 3 h ago</text>
   </g>
   <g id="text_13">
    <text style="font-size: 7.8px; font-family: 'DejaVu Sans'; text-anchor: start; fill: #61717d" x="171.7632" y="175.989112" transform="rotate(-0 171.7632 175.989112)">inspected every 0.5 h</text>
   </g>
   <g id="text_14">
    <text style="font-weight: 700; font-size: 10.3px; font-family: 'DejaVu Sans'; text-anchor: start; fill: #2f6b9a" x="37.8288" y="219.798487" transform="rotate(-0 37.8288 219.798487)">mug B</text>
   </g>
   <g id="text_15">
    <text style="font-size: 7.3px; font-family: 'DejaVu Sans'; text-anchor: end; fill: #61717d" x="293.4288" y="219.051144" transform="rotate(-0 293.4288 219.051144)">candidate</text>
   </g>
   <g id="text_16">
    <text style="font-size: 7.6px; font-family: 'DejaVu Sans'; text-anchor: middle; fill: #24323d" x="101.7288" y="235.377125" transform="rotate(-0 101.7288 235.377125)">type = Mug</text>
   </g>
   <g id="text_17">
    <text style="font-size: 7.6px; font-family: 'DejaVu Sans'; text-anchor: middle; fill: #24323d" x="220.3272" y="235.377125" transform="rotate(-0 220.3272 235.377125)">beside(kettle)</text>
   </g>
   <g id="text_18">
    <text style="font-size: 8.2px; font-family: 'DejaVu Sans'; text-anchor: start; fill: #24323d" x="37.8288" y="252.131487" transform="rotate(-0 37.8288 252.131487)">observed 4 h ago</text>
   </g>
   <g id="text_19">
    <text style="font-size: 7.8px; font-family: 'DejaVu Sans'; text-anchor: start; fill: #61717d" x="171.7632" y="252.021112" transform="rotate(-0 171.7632 252.021112)">inspected every 4.0 h</text>
   </g>
   <g id="text_20">
    <text style="font-size: 7.5px; font-family: 'DejaVu Sans'; text-anchor: start; fill: #b44b52" x="20.448" y="287.189531" transform="rotate(-0 20.448 287.189531)">Scene/schedule is persistence context, not a query cue.</text>
   </g>
   <g id="text_21">
    <text style="font-weight: 700; font-size: 12px; font-family: 'DejaVu Sans'; text-anchor: start; fill: #183b56" x="357.84" y="63.79125" transform="rotate(-0 357.84 63.79125)">(b)</text>
   </g>
   <g id="text_22">
    <text style="font-weight: 700; font-size: 11.2px; font-family: 'DejaVu Sans'; text-anchor: start; fill: #183b56" x="384.4224" y="63.52675" transform="rotate(-0 384.4224 63.52675)">OpenProp decision boundary</text>
   </g>
   <g id="text_23">
    <text style="font-size: 7.8px; font-family: 'DejaVu Sans'; text-anchor: start; fill: #61717d" x="384.4224" y="76.456312" transform="rotate(-0 384.4224 76.456312)">Match is fixed; evidence validity changes the rank.</text>
   </g>
   <g id="text_24">
    <text style="font-weight: 700; font-size: 8.3px; font-family: 'DejaVu Sans'; text-anchor: start; fill: #24323d" x="376.2432" y="98.334659" transform="rotate(-0 376.2432 98.334659)">Typed match</text>
   </g>
   <g id="text_25">
    <text style="font-size: 8.4px; font-family: 'DejaVu Sans Mono'; text-anchor: end; fill: #24323d" x="669.672" y="98.416988" transform="rotate(-0 669.672 98.416988)">A = 1.00     B = 1.00</text>
   </g>
   <g id="text_26">
    <text style="font-size: 7.7px; font-family: 'DejaVu Sans'; text-anchor: start; fill: #61717d" x="376.2432" y="109.951919" transform="rotate(-0 376.2432 109.951919)">semantic parser → deterministic relation comparator</text>
   </g>
   <g id="text_27">
    <text style="font-weight: 700; font-size: 9.4px; font-family: 'DejaVu Sans'; text-anchor: start; fill: #b44b52" x="376.2432" y="149.819413" transform="rotate(-0 376.2432 149.819413)">Detected-time naïve</text>
   </g>
   <g id="text_28">
    <text style="font-weight: 700; font-size: 8.4px; font-family: 'DejaVu Sans'; text-anchor: end; fill: #b44b52" x="667.6272" y="149.543475" transform="rotate(-0 667.6272 149.543475)">ranks B first</text>
   </g>
   <g id="text_29">
    <text style="font-size: 8px; font-family: 'DejaVu Sans'; text-anchor: start; fill: #24323d" x="376.2432" y="162.9115" transform="rotate(-0 376.2432 162.9115)">Treats discovery time as transition time</text>
   </g>
   <g id="text_30">
    <text style="font-size: 8px; font-family: 'DejaVu Sans'; text-anchor: start; fill: #b44b52" x="376.2432" y="175.0075" transform="rotate(-0 376.2432 175.0075)">→ sparse inspection looks more persistent</text>
   </g>
   <g id="text_31">
    <text style="font-size: 8.1px; font-family: 'DejaVu Sans Mono'; text-anchor: start; fill: #24323d" x="376.2432" y="190.608609" transform="rotate(-0 376.2432 190.608609)">freshness(A, 3 h)  &lt;  freshness(B, 4 h)</text>
   </g>
   <g id="text_32">
    <text style="font-size: 7.4px; font-family: 'DejaVu Sans'; text-anchor: start; fill: #61717d" x="376.2432" y="201.107537" transform="rotate(-0 376.2432 201.107537)">ranking error from observation frequency</text>
   </g>
   <g id="text_33">
    <text style="font-weight: 700; font-size: 9.5px; font-family: 'DejaVu Sans'; text-anchor: start; fill: #238b7e" x="376.2432" y="243.504606" transform="rotate(-0 376.2432 243.504606)">Interval-aware OpenProp</text>
   </g>
   <g id="text_34">
    <text style="font-weight: 700; font-size: 8.5px; font-family: 'DejaVu Sans'; text-anchor: end; fill: #238b7e" x="667.6272" y="243.228669" transform="rotate(-0 667.6272 243.228669)">ranks A first</text>
   </g>
   <g id="text_35">
    <text style="font-size: 8px; font-family: 'DejaVu Sans'; text-anchor: start; fill: #24323d" x="376.2432" y="256.9147" transform="rotate(-0 376.2432 256.9147)">Keeps the change inside its inspection interval</text>
   </g>
   <g id="text_36">
    <text style="font-size: 8px; font-family: 'DejaVu Sans'; text-anchor: start; fill: #238b7e" x="376.2432" y="269.0107" transform="rotate(-0 376.2432 269.0107)">→ equal latent hazards stay equal</text>
   </g>
   <g id="text_37">
    <text style="font-size: 8.1px; font-family: 'DejaVu Sans Mono'; text-anchor: start; fill: #24323d" x="376.2432" y="284.611809" transform="rotate(-0 376.2432 284.611809)">freshness(A, 3 h)  &gt;  freshness(B, 4 h)</text>
   </g>
   <g id="text_38">
    <text style="font-size: 7.4px; font-family: 'DejaVu Sans'; text-anchor: start; fill: #61717d" x="376.2432" y="298.566737" transform="rotate(-0 376.2432 298.566737)">audit = typed match × confidence × persistence × coverage</text>
   </g>
   <g id="text_39">
    <text style="font-weight: 700; font-size: 12px; font-family: 'DejaVu Sans'; text-anchor: start; fill: #183b56" x="736.128" y="63.79125" transform="rotate(-0 736.128 63.79125)">(c)</text>
   </g>
   <g id="text_40">
    <text style="font-weight: 700; font-size: 11.2px; font-family: 'DejaVu Sans'; text-anchor: start; fill: #183b56" x="762.7104" y="63.52675" transform="rotate(-0 762.7104 63.52675)">Controlled ranking confirmation</text>
   </g>
   <g id="text_41">
    <text style="font-size: 7.8px; font-family: 'DejaVu Sans'; text-anchor: start; fill: #61717d" x="762.7104" y="76.456312" transform="rotate(-0 762.7104 76.456312)">Synthetic mechanism evidence; 10 untouched seeds.</text>
   </g>
   <g id="text_42">
    <text style="font-weight: 700; font-size: 9.1px; font-family: 'DejaVu Sans'; text-anchor: start; fill: #24323d" x="756.576" y="102.735031" transform="rotate(-0 756.576 102.735031)">Overall Top-1</text>
   </g>
   <g id="text_43">
    <text style="font-size: 7.8px; font-family: 'DejaVu Sans'; text-anchor: start; fill: #61717d" x="756.576" y="114.472312" transform="rotate(-0 756.576 114.472312)">detected-time naïve</text>
   </g>
   <g id="text_44">
    <text style="font-weight: 700; font-size: 8.2px; font-family: 'DejaVu Sans'; text-anchor: start; fill: #b44b52" x="920.16" y="122.531487" transform="rotate(-0 920.16 122.531487)">0.55</text>
   </g>
   <g id="text_45">
    <text style="font-size: 7.8px; font-family: 'DejaVu Sans'; text-anchor: start; fill: #61717d" x="756.576" y="142.120312" transform="rotate(-0 756.576 142.120312)">interval-aware</text>
   </g>
   <g id="text_46">
    <text style="font-weight: 700; font-size: 8.2px; font-family: 'DejaVu Sans'; text-anchor: start; fill: #238b7e" x="920.16" y="150.179487" transform="rotate(-0 920.16 150.179487)">1.00</text>
   </g>
   <g id="text_47">
    <text style="font-weight: 700; font-size: 9.2px; font-family: 'DejaVu Sans'; text-anchor: middle; fill: #238b7e" x="869.04" y="177.757825" transform="rotate(-0 869.04 177.757825)">+0.450  [0.350, 0.500]</text>
   </g>
   <g id="text_48">
    <text style="font-size: 7px; font-family: 'DejaVu Sans'; text-anchor: middle; fill: #61717d" x="869.04" y="193.739563" transform="rotate(-0 869.04 193.739563)">paired seed-bootstrap 95% CI</text>
   </g>
   <g id="text_49">
    <text style="font-size: 7.7px; font-family: 'DejaVu Sans'; text-anchor: start; fill: #61717d" x="756.576" y="231.257519" transform="rotate(-0 756.576 231.257519)">Worst-scene Top-1</text>
   </g>
   <g id="text_50">
    <text style="font-weight: 700; font-size: 9px; font-family: 'DejaVu Sans'; text-anchor: end; fill: #238b7e" x="981.504" y="231.616237" transform="rotate(-0 981.504 231.616237)">0.10 → 1.00</text>
   </g>
   <g id="text_51">
    <text style="font-size: 7.7px; font-family: 'DejaVu Sans'; text-anchor: start; fill: #61717d" x="756.576" y="245.427119" transform="rotate(-0 756.576 245.427119)">Target-scene gap</text>
   </g>
   <g id="text_52">
    <text style="font-weight: 700; font-size: 9px; font-family: 'DejaVu Sans'; text-anchor: end; fill: #238b7e" x="981.504" y="245.785837" transform="rotate(-0 981.504 245.785837)">0.90 → 0.00</text>
   </g>
   <g id="text_53">
    <text style="font-size: 7.2px; font-family: 'DejaVu Sans'; text-anchor: start; fill: #61717d" x="756.576" y="259.80435" transform="rotate(-0 756.576 259.80435)">40 balanced analytic cases · 9/1/0 W/T/L</text>
   </g>
   <g id="text_54">
    <text style="font-weight: 700; font-size: 8.1px; font-family: 'DejaVu Sans Mono'; text-anchor: start; fill: #b44b52" x="756.576" y="294.845653" transform="rotate(-0 756.576 294.845653)">current_truth = mug A</text>
   </g>
   <g id="text_55">
    <text style="font-size: 7.7px; font-family: 'DejaVu Sans'; text-anchor: end; fill: #b44b52" x="981.504" y="294.847919" transform="rotate(-0 981.504 294.847919)">evaluation only</text>
   </g>
   <g id="text_56">
    <text style="font-size: 7.2px; font-family: 'DejaVu Sans'; text-anchor: start; fill: #b44b52" x="756.576" y="305.76915" transform="rotate(-0 756.576 305.76915)">never enters parsing, persistence fitting, or ranking</text>
   </g>
   <g id="text_57">
    <text style="font-size: 7.7px; font-family: 'DejaVu Sans'; text-anchor: start; fill: #61717d" x="20.448" y="333.900719" transform="rotate(-0 20.448 333.900719)">OpenProp does not replace perception or mapping: an upstream memory supplies candidates and timestamped observations.</text>
   </g>
   <g id="text_58">
    <text style="font-weight: 700; font-size: 7.7px; font-family: 'DejaVu Sans'; text-anchor: end; fill: #b44b52" x="1001.952" y="333.900719" transform="rotate(-0 1001.952 333.900719)">No real-world effectiveness claim</text>
   </g>
  </g>
 </g>
 <defs>
  <clipPath id="pa0c6008c5e">
   <rect x="0" y="0" width="1022.4" height="345.6"/>
  </clipPath>
 </defs>
</svg>
